<svg id="Layer_1" enable-background="new 0 0 512 512" height="512" viewBox="0 0 512 512" width="512" xmlns="http://www.w3.org/2000/svg"><g><path d="m507.558 309.612c-32.478-32.437-85.046-32.471-117.557.04l-57.626 57.618c-8.738 8.742-19.999 14.687-32.036 17.109 1.827-5.079 2.794-10.47 2.794-15.912 0-26.093-21.106-47.133-47.133-47.133h-96.4c-21.766 0-41.507 8.822-55.846 23.074-7.742-13.004-22.354-23.075-40.554-23.075h-16.067c-26.489 0-47.133 21.574-47.133 47.134v80.333c0 25.651 20.747 47.133 47.133 47.133h241.008c35.088 0 68.072-13.666 92.875-38.479l126.589-126.581c2.813-2.813 4.394-6.628 4.394-10.607.001-4.164-1.698-7.934-4.441-10.654zm-427.225 90.988v65.333h-33.2c-9.601 0-17.133-7.831-17.133-17.133v-80.333c0-9.243 7.457-17.133 17.133-17.133h16.067c9.547 0 17.133 7.733 17.133 17.133zm279.469 35.643c-19.138 19.146-44.588 29.69-71.668 29.69h-177.8v-65.333c0-27.166 22.101-49.267 49.267-49.267h96.399c9.548 0 17.133 7.734 17.133 17.133 0 9.309-7.529 17.133-17.133 17.133h-64.267c-8.284 0-15 6.716-15 15s6.716 15 15 15h96.408c24.369 0 48.226-9.886 65.45-27.12l57.623-57.615c23.317-23.317 51.951-15.18 63.065-9.092z"/><path d="m255.999 202.597c21.914 0 43.351-8.88 58.813-24.363 5.854-5.861 5.848-15.359-.014-21.213-5.862-5.855-15.36-5.848-21.213.014-9.878 9.89-23.577 15.563-37.587 15.563-14.009 0-27.708-5.672-37.586-15.563-5.855-5.863-15.352-5.868-21.213-.014s-5.868 15.352-.014 21.213c15.464 15.483 36.901 24.363 58.814 24.363z"/><circle cx="223.866" cy="111.4" r="15"/><circle cx="288.133" cy="111.4" r="15"/><path d="m256 271c70.285 0 127.467-57.182 127.467-127.467s-57.182-127.466-127.467-127.466-127.467 57.182-127.467 127.467 57.182 127.466 127.467 127.466zm0-224.933c53.743 0 97.467 43.724 97.467 97.467s-43.724 97.466-97.467 97.466-97.467-43.724-97.467-97.467 43.724-97.466 97.467-97.466z"/></g></svg>