<svg id="Capa_1" enable-background="new 0 0 512 512" height="512" viewBox="0 0 512 512" width="512" xmlns="http://www.w3.org/2000/svg"><g><g><g><g><path d="m387.979 222.399v-113.831c0-6.18-3.297-11.891-8.649-14.981l-98.581-56.916c-5.352-3.09-11.946-3.09-17.298 0l-98.581 56.916c-5.352 3.09-8.649 8.801-8.649 14.981v113.831c0 6.18 3.297 11.891 8.649 14.981l98.581 56.915c5.352 3.09 11.946 3.09 17.298 0l98.581-56.915c5.352-3.091 8.649-8.801 8.649-14.981z" fill="#bed8fb"/><path d="m272.1 165.483 113.561-65.565c-1.493-2.586-3.656-4.787-6.332-6.332l-98.581-56.915c-5.352-3.09-11.946-3.09-17.298 0l-98.58 56.916c-2.676 1.545-4.838 3.745-6.332 6.332z" fill="#9dc6fb"/></g></g><g><g><g><path d="m469.963 323.9-149.013 72.812.127-18.327c.04-5.793-.99-11.58-3.342-16.874-5.318-11.969-16.117-20.711-29.123-22.643l-89.334-9.633c-18.384-2.731-27.571-9.198-43.597-19.04-21.881-13.437-46.773-20.519-72.123-20.519h-28.574v142.028l104.169 40.703c8.847 3.457 18.211 5.227 27.651 5.227h116.993c15.023 0 29.738-4.482 42.428-12.923l147.65-99.385c10.255-6.902 13.58-20.47 7.679-31.332-6.129-11.279-20.056-15.73-31.591-10.094z" fill="#ffddce"/></g></g><path d="m501.553 333.996c-6.128-11.281-20.056-15.732-31.59-10.095l-30.828 15.063v18.002c0 10.511-4.631 20.413-12.531 27.145l-80.38 54.104c-12.69 8.442-27.404 12.923-42.428 12.923h-116.992c-9.44 0-18.804-1.77-27.651-5.227l-104.169-40.704v26.498l104.169 40.703c8.847 3.457 18.211 5.227 27.651 5.227h116.993c15.023 0 29.738-4.482 42.428-12.923l147.65-99.385c10.254-6.902 13.579-20.469 7.678-31.331z" fill="#ffcbbe"/><path d="m58.554 278.657v168.199c0 14.098-11.429 25.527-25.527 25.527-14.098 0-25.527-11.429-25.527-25.527v-168.199c0-14.098 11.429-25.527 25.527-25.527 14.098 0 25.527 11.429 25.527 25.527z" fill="#e28086"/></g></g><g><path d="m161.12 243.874 98.58 56.915c7.646 4.414 17.148 4.417 24.798 0l98.581-56.915c7.648-4.415 12.399-12.644 12.399-21.476v-113.83c0-8.825-4.748-17.059-12.399-21.476l-98.581-56.915c-7.647-4.416-17.149-4.417-24.798 0l-98.58 56.915c-7.642 4.412-12.4 12.639-12.4 21.476v113.831c.001 8.83 4.753 17.059 12.4 21.475zm106.08-200.708c3.02-1.744 6.778-1.745 9.799 0l95.981 55.414-37.253 21.508c-3.587 2.071-4.816 6.657-2.745 10.244 2.082 3.604 6.675 4.807 10.244 2.745l37.252-21.508v110.828c0 3.49-1.877 6.741-4.899 8.486l-95.98 55.414v-116.484l33.263-19.204c3.587-2.071 4.816-6.657 2.745-10.244s-6.66-4.817-10.244-2.745l-33.263 19.204-100.88-58.244zm-103.48 68.403 100.88 58.244v116.486l-95.98-55.415c-3.022-1.745-4.9-4.997-4.9-8.486z"/><path d="m508.143 330.415c-8.068-14.852-26.284-20.675-41.473-13.253l-138.137 67.498.043-6.223c.173-24.972-17.413-43.8-38.862-46.986-.1-.015-.199-.027-.299-.039l-89.181-9.616c-16.77-2.518-25.025-8.41-40.63-17.991-23.041-14.149-49.337-21.628-76.047-21.628h-17.503v-3.52c0-18.211-14.815-33.027-33.027-33.027s-33.027 14.816-33.027 33.027v168.199c0 18.211 14.815 33.026 33.027 33.026s33.027-14.816 33.027-33.026v-2.774l90.37 35.311c9.75 3.81 19.972 5.741 30.381 5.741h116.993c16.529 0 32.637-4.903 46.616-14.202l147.651-99.385c13.534-9.11 17.868-26.793 10.078-41.132zm-18.455 28.692-147.616 99.362c-11.477 7.633-24.712 11.668-38.276 11.668h-116.992c-8.534 0-16.919-1.586-24.922-4.713l-95.828-37.444v-74.98c0-4.142-3.357-7.499-7.499-7.499s-7.499 3.358-7.499 7.499v93.857c0 9.94-8.087 18.028-18.028 18.028s-18.028-8.087-18.028-18.028v-168.2c0-9.941 8.087-18.028 18.028-18.028s18.028 8.087 18.028 18.028v39.282c0 4.142 3.357 7.499 7.499 7.499s7.499-3.358 7.499-7.499v-20.763h17.504c23.938 0 47.52 6.712 68.198 19.41 16.623 10.209 26.612 17.125 46.42 20.067.1.015.199.027.299.038l89.177 9.616c13.973 2.145 26.047 14.604 25.926 32.026l-.075 10.879h-107.889c-13.046 0-21.29-7.975-21.783-8.258-3.223-2.6-7.945-2.091-10.545 1.133-2.598 3.225-2.092 7.946 1.134 10.545.672.382 12.229 11.579 31.194 11.579h115.336c.022 0 .043-.001.065-.001h.012c1.203-.012 2.338-.307 3.342-.822l148.886-72.75c7.951-3.884 17.486-.837 21.709 6.937 4.077 7.506 1.808 16.762-5.276 21.532z"/></g></g></svg>