<svg id="Layer_3" enable-background="new 0 0 64 64" height="512" viewBox="0 0 64 64" width="512" xmlns="http://www.w3.org/2000/svg"><path d="m2 2 20 9v51l-20-9z" fill="#8892a0"/><path d="m6 22 12 5v-13l-12-5z" fill="#ebf7fe"/><path d="m42 2 20 9v51l-20-9z" fill="#8892a0"/><path d="m46 22 12 5v-13l-12-5z" fill="#ebf7fe"/><path d="m22 62 20-9v-51l-20 9z" fill="#4d5d7a"/><path d="m26 42 12-5v13l-12 5z" fill="#ebf7fe"/><g fill="#fff"><path d="m11 23h2v13h-2z" transform="matrix(.385 -.923 .923 .385 -19.846 29.231)"/><path d="m11 28h2v13h-2z" transform="matrix(.385 -.923 .923 .385 -24.462 32.308)"/><path d="m11 33h2v13h-2z" transform="matrix(.385 -.923 .923 .385 -29.077 35.385)"/><path d="m11 38h2v13h-2z" transform="matrix(.385 -.923 .923 .385 -33.692 38.462)"/><path d="m25.5 33.5h13v2h-13z" transform="matrix(.923 -.385 .385 .923 -10.812 14.971)"/><path d="m25.5 28.5h13v2h-13z" transform="matrix(.923 -.385 .385 .923 -8.888 14.586)"/><path d="m25.5 23.5h13v2h-13z" transform="matrix(.923 -.385 .385 .923 -6.964 14.201)"/><path d="m25.5 18.5h13v2h-13z" transform="matrix(.923 -.385 .385 .923 -5.04 13.816)"/><path d="m51 23h2v13h-2z" transform="matrix(.385 -.923 .923 .385 4.769 66.154)"/><path d="m51 28h2v13h-2z" transform="matrix(.385 -.923 .923 .385 .154 69.231)"/><path d="m51 33h2v13h-2z" transform="matrix(.385 -.923 .923 .385 -4.462 72.308)"/><path d="m51 38h2v13h-2z" transform="matrix(.385 -.923 .923 .385 -9.077 75.385)"/></g></svg>