<svg height="512pt" viewBox="0 0 512 512" width="512pt" xmlns="http://www.w3.org/2000/svg"><path d="m404.789062 47.65625c-41.929687-30-93.292968-47.65625-148.789062-47.65625s-106.859375 17.65625-148.789062 47.65625c-64.910157 46.441406-107.210938 122.457031-107.210938 208.34375 0 87.484375 43.875 164.703125 110.828125 210.886719 41.257813 28.445312 91.273437 45.113281 145.171875 45.113281s103.914062-16.667969 145.171875-45.113281c66.953125-46.183594 110.828125-123.402344 110.828125-210.886719 0-85.886719-42.300781-161.902344-107.210938-208.34375zm-148.789062 257.390625c-13.011719 0-24.847656-5.070313-33.613281-13.339844-9.5-8.941406-15.433594-21.636719-15.433594-35.707031 0-12.445312 4.636719-23.808594 12.28125-32.449219 8.980469-10.179687 22.125-16.597656 36.765625-16.597656s27.785156 6.417969 36.765625 16.597656c7.644531 8.640625 12.28125 20.003907 12.28125 32.449219 0 14.070312-5.933594 26.765625-15.433594 35.707031-8.765625 8.269531-20.601562 13.339844-33.613281 13.339844zm0 0" fill="#dad0cd"/><g fill="#f1eded"><path d="m401.171875 466.886719c-41.257813 28.445312-91.273437 45.113281-145.171875 45.113281s-103.914062-16.667969-145.171875-45.113281l111.558594-175.179688c8.765625 8.269531 20.601562 13.339844 33.613281 13.339844s24.847656-5.070313 33.613281-13.339844zm0 0"/><path d="m256 0c4.84375 0 9.640625.132812 14.410156.402344l-3.707031 142.503906-1.6875 64.882812c-2.925781-.546874-5.9375-.835937-9.015625-.835937-14.640625 0-27.785156 6.417969-36.765625 16.597656l-35.273437-55.382812-76.75-120.511719c41.929687-30 93.292968-47.65625 148.789062-47.65625zm0 0"/><path d="m404.789062 47.65625-76.75 120.511719-35.273437 55.382812c-3.242187-3.679687-7.042969-6.871093-11.257813-9.4375l17.398438-63.3125 37.871094-137.789062c24.527344 8.148437 47.40625 19.902343 68.011718 34.644531zm0 0"/></g><path d="m328.039062 168.167969c-19.601562-16.09375-44.6875-25.757813-72.039062-25.757813s-52.4375 9.664063-72.039062 25.757813c-25.363282 20.839843-41.546876 52.445312-41.546876 87.832031 0 36.984375 17.667969 69.835938 45.027344 90.574219 19.046875 14.441406 42.804688 23.011719 68.558594 23.011719 25.757812 0 49.511719-8.570313 68.558594-23.011719 27.363281-20.738281 45.03125-53.589844 45.03125-90.574219 0-35.386719-16.1875-66.992188-41.550782-87.832031zm-72.039062 136.878906c-13.011719 0-24.847656-5.070313-33.613281-13.339844-9.5-8.941406-15.433594-21.636719-15.433594-35.707031 0-12.445312 4.636719-23.808594 12.28125-32.449219 8.980469-10.179687 22.125-16.597656 36.765625-16.597656s27.785156 6.417969 36.765625 16.597656c7.644531 8.640625 12.28125 20.003907 12.28125 32.449219 0 14.070312-5.933594 26.765625-15.433594 35.707031-8.765625 8.269531-20.601562 13.339844-33.613281 13.339844zm0 0" fill="#fc6393"/><path d="m256 142.410156c3.617188 0 7.179688.167969 10.703125.496094l-1.6875 64.878906c-2.925781-.542968-5.933594-.832031-9.015625-.832031-14.636719 0-27.78125 6.417969-36.765625 16.597656l-35.273437-55.386719c19.601562-16.089843 44.6875-25.753906 72.039062-25.753906zm0 0" fill="#ff97bd"/><path d="m328.039062 168.167969-35.273437 55.382812c-3.242187-3.679687-7.042969-6.871093-11.257813-9.4375l17.398438-63.3125c10.613281 4.324219 20.417969 10.207031 29.132812 17.367188zm0 0" fill="#ff97bd"/><path d="m324.558594 346.574219c-19.046875 14.441406-42.804688 23.011719-68.558594 23.011719s-49.511719-8.570313-68.558594-23.011719l34.945313-54.867188c8.765625 8.269531 20.601562 13.339844 33.613281 13.339844s24.847656-5.070313 33.613281-13.339844zm0 0" fill="#ff97bd"/><path d="m317.804688 304.96875c-1.476563 0-2.96875-.421875-4.289063-1.304688-3.546875-2.371093-4.5-7.171874-2.128906-10.71875 15.007812-22.441406 15.007812-51.449218 0-73.890624-2.371094-3.546876-1.417969-8.34375 2.128906-10.714844 3.546875-2.375 8.34375-1.421875 10.71875 2.125 18.492187 27.664062 18.492187 63.410156 0 91.070312-1.492187 2.226563-3.9375 3.433594-6.429687 3.433594zm0 0" fill="#f1eded"/></svg>