<svg id="Capa_1" enable-background="new 0 0 512 512" height="512" viewBox="0 0 512 512" width="512" xmlns="http://www.w3.org/2000/svg" xmlns:xlink="http://www.w3.org/1999/xlink"><linearGradient id="SVGID_1_" gradientUnits="userSpaceOnUse" x1="8.753" x2="524.202" y1="401.161" y2="103.566"><stop offset="0" stop-color="#dcfdee" stop-opacity="0"/><stop offset=".6288" stop-color="#d2f3e4"/></linearGradient><path d="m418.32 2.5c-55.666-9.521-178.298 12.183-200.004 105.017-14.431 61.722-14.007 112.075-50.427 113.02-21.67.562-32.97-44.31-62.889-48.001-39.047-4.817-66.145 27.695-83.057 57.138-37.205 64.772-25.571 174.918 23.354 228.632 118.488 130.086 259.197-5.952 319.358-112.309 38.585-68.213 125.637-123.352 143.767-200.248 15.177-64.376-18.503-131.003-90.102-143.249z" fill="url(#SVGID_1_)"/><path d="m442.385 344.651h-61.796v-276.311c0-16.57-13.43-30-30-30h-202.24c-14.817 0-27.115 10.742-29.553 24.862-.15-.001-.297-.011-.447-.011-28.277 0-51.201 22.923-51.201 51.201s22.923 51.2 51.2 51.201v298.067c0 16.57 13.43 30 30 30h202.24c16.57 0 30-13.43 30-30v-29.814h61.796c5.245 0 9.497-4.252 9.497-9.497v-70.202c.001-5.244-4.251-9.496-9.496-9.496z" fill="#6583fe" opacity=".2"/><path d="m380.589 48.34v395.32c0 16.57-13.43 30-30 30h-202.24c-16.57 0-30-13.43-30-30v-395.32c0-16.57 13.43-30 30-30h202.24c16.57 0 30 13.43 30 30z" fill="#6583fe"/><path d="m169.549 112c0 28.28-22.92 51.2-51.2 51.2v-102.4c28.28 0 51.2 22.92 51.2 51.2z" fill="#4369fd"/><path d="m380.587 341.65v89.2h-61.8c-5.25 0-9.5-4.26-9.5-9.5v-70.2c0-5.25 4.25-9.5 9.5-9.5z" fill="#4369fd"/><g fill="#9fb0fe"><path d="m288.221 51.464h-56.52c-2.762 0-5-2.239-5-5s2.238-5 5-5h56.52c2.762 0 5 2.239 5 5s-2.238 5-5 5z"/><circle cx="210.712" cy="46.464" r="5"/><circle cx="249.467" cy="435.407" r="24.336"/></g><path d="m360.187 75.67v321.36c0 2.76-2.24 5-5 5h-211.44c-2.76 0-5-2.24-5-5v-321.36c0-2.76 2.24-5 5-5h211.44c2.76 0 5 2.24 5 5z" fill="#fff"/><path d="m360.179 75.67v124.66h-221.43v-124.66c0-2.76 2.24-5 5-5h211.43c2.77 0 5 2.24 5 5z" fill="#d2deff"/><path d="m169.549 112c0 21.03-12.67 39.09-30.8 46.97v-83.3c0-2.76 2.24-5 5-5h4.82c12.72 9.31 20.98 24.36 20.98 41.33z" fill="#b7c5ff"/><path d="m360.183 112v-36.333c0-2.761-2.239-5-5-5h-211.433c-2.761 0-5 2.239-5 5v36.333z" fill="#ff7eb8"/><path d="m186.702 96.334h-21.52c-2.762 0-5-2.239-5-5s2.238-5 5-5h21.52c2.762 0 5 2.239 5 5s-2.238 5-5 5z" fill="#fff"/><path d="m332.462 96.334h-6.52c-2.762 0-5-2.239-5-5s2.238-5 5-5h6.52c2.762 0 5 2.239 5 5s-2.239 5-5 5z" fill="#fff"/><path d="m308.712 96.334h-6.52c-2.762 0-5-2.239-5-5s2.238-5 5-5h6.52c2.762 0 5 2.239 5 5s-2.239 5-5 5z" fill="#fff"/><circle cx="175.744" cy="154.459" fill="#6583fe" r="15.958"/><path d="m282.462 140.959h-66.52c-2.762 0-5-2.239-5-5s2.238-5 5-5h66.52c2.762 0 5 2.239 5 5s-2.239 5-5 5z" fill="#9fb0fe"/><path d="m332.462 159.459h-116.52c-2.762 0-5-2.239-5-5s2.238-5 5-5h116.52c2.762 0 5 2.239 5 5s-2.239 5-5 5z" fill="#9fb0fe"/><path d="m332.462 177.959h-116.52c-2.762 0-5-2.239-5-5s2.238-5 5-5h116.52c2.762 0 5 2.239 5 5s-2.239 5-5 5z" fill="#9fb0fe"/><circle cx="332.967" cy="135.959" fill="#6583fe" r="5"/><circle cx="175.744" cy="236.348" fill="#ff7eb8" r="15.958"/><path d="m282.462 232.848h-66.52c-2.762 0-5-2.239-5-5s2.238-5 5-5h66.52c2.762 0 5 2.239 5 5s-2.239 5-5 5z" fill="#d2deff"/><path d="m332.462 251.348h-116.52c-2.762 0-5-2.239-5-5s2.238-5 5-5h116.52c2.762 0 5 2.239 5 5s-2.239 5-5 5z" fill="#d2deff"/><circle cx="332.967" cy="227.848" fill="#ff7eb8" r="5"/><circle cx="175.744" cy="292.189" fill="#02ffb3" r="15.958"/><path d="m282.462 288.689h-66.52c-2.762 0-5-2.239-5-5s2.238-5 5-5h66.52c2.762 0 5 2.239 5 5s-2.239 5-5 5z" fill="#d2deff"/><path d="m332.462 307.189h-116.52c-2.762 0-5-2.239-5-5s2.238-5 5-5h116.52c2.762 0 5 2.239 5 5s-2.239 5-5 5z" fill="#d2deff"/><circle cx="332.967" cy="283.689" fill="#02ffb3" r="5"/><circle cx="175.744" cy="348.029" fill="#9fb0fe" r="15.958"/><path d="m282.462 344.529h-66.52c-2.762 0-5-2.239-5-5s2.238-5 5-5h66.52c2.762 0 5 2.239 5 5s-2.239 5-5 5z" fill="#d2deff"/><path d="m332.462 363.029h-116.52c-2.762 0-5-2.239-5-5s2.238-5 5-5h116.52c2.762 0 5 2.239 5 5s-2.239 5-5 5z" fill="#d2deff"/><circle cx="332.967" cy="339.529" fill="#9fb0fe" r="5"/><path d="m442.385 413.846h-123.601c-5.245 0-9.497-4.252-9.497-9.497v-70.202c0-5.245 4.252-9.497 9.497-9.497h123.601c5.245 0 9.497 4.252 9.497 9.497v70.202c0 5.245-4.252 9.497-9.497 9.497z" fill="#97ffd2"/><circle cx="118.349" cy="94.392" fill="#ff7eb8" r="51.201"/><circle cx="118.349" cy="94.392" fill="#ffc4df" r="36.805"/><path d="m452.016 323.342c-.057-.057-.118-.108-.178-.162-2.541-2.193-5.841-3.53-9.453-3.53h-56.801v-271.31c0-19.299-15.701-35-35-35h-202.235c-15.414 0-29.136 10.248-33.534 24.974-29.348 1.831-52.667 26.276-52.667 56.078 0 30.989 25.211 56.201 56.2 56.201s56.201-25.212 56.201-56.201c0-28.626-21.519-52.305-49.227-55.752 3.858-9.134 12.926-15.3 23.026-15.3h202.235c13.785 0 25 11.215 25 25v271.31h-56.801c-3.612 0-6.911 1.336-9.452 3.529-.061.054-.122.106-.18.164-2.976 2.657-4.864 6.509-4.864 10.804v70.202c0 7.994 6.503 14.497 14.496 14.497h27.801c2.762 0 5-2.238 5-5s-2.238-5-5-5h-27.801c-2.479 0-4.496-2.018-4.496-4.497v-70.202c0-.013.004-.026.004-.039l63.443 43.997c.857.595 1.854.892 2.85.892s1.992-.297 2.85-.892l63.444-43.998c0 .014.004.026.004.04v70.202c0 2.479-2.018 4.497-4.497 4.497h-61.801c-2.762 0-5 2.238-5 5v29.814c0 13.785-11.215 25-25 25h-202.234c-13.785 0-25-11.215-25-25v-265.41c0-2.762-2.238-5-5-5s-5 2.238-5 5v265.411c0 19.299 15.701 35 35 35h202.235c19.299 0 35-15.701 35-35v-24.814h56.801c7.994 0 14.497-6.503 14.497-14.497v-70.202c0-4.296-1.888-8.149-4.866-10.806zm-287.466-228.95c0 25.476-20.726 46.201-46.201 46.201s-46.2-20.726-46.2-46.201 20.726-46.2 46.2-46.2c25.475-.001 46.201 20.725 46.201 46.2zm216.034 273.52-55.174-38.262h110.347z" fill="#2626bc"/><path d="m134.273 74.361h-5.444c-2.761 0-5 2.238-5 5s2.239 5 5 5h.444v25.063c0 2.762 2.239 5 5 5s5-2.238 5-5v-30.063c0-2.762-2.239-5-5-5z" fill="#ff5ba8"/><path d="m114.19 80.994h-1.632v-1.633c0-2.762-2.239-5-5-5s-5 2.238-5 5v1.633h-1.633c-2.761 0-5 2.238-5 5s2.239 5 5 5h1.633v1.632c0 2.762 2.239 5 5 5s5-2.238 5-5v-1.632h1.632c2.761 0 5-2.238 5-5s-2.238-5-5-5z" fill="#ff5ba8"/><path d="m342.462 398.529h-11.52c-2.762 0-5-2.239-5-5s2.238-5 5-5h11.52c2.762 0 5 2.239 5 5s-2.239 5-5 5z" fill="#01eca5"/><path d="m78.441 215.861c-2.762 0-5-2.238-5-5 0-3.309-2.691-6-6-6-2.762 0-5-2.238-5-5s2.238-5 5-5c3.309 0 6-2.691 6-6 0-2.762 2.238-5 5-5s5 2.238 5 5c0 3.309 2.691 6 6 6 2.762 0 5 2.238 5 5s-2.238 5-5 5c-3.309 0-6 2.691-6 6 0 2.762-2.238 5-5 5z" fill="#ff7eb8"/><path d="m71.118 282c-2.762 0-5-2.238-5-5 0-3.309-2.691-6-6-6-2.762 0-5-2.238-5-5s2.238-5 5-5c3.309 0 6-2.691 6-6 0-2.762 2.238-5 5-5s5 2.238 5 5c0 3.309 2.691 6 6 6 2.762 0 5 2.238 5 5s-2.238 5-5 5c-3.309 0-6 2.691-6 6 0 2.762-2.238 5-5 5z" fill="#01eca5"/><path d="m414.29 479.742c-2.762 0-5-2.238-5-5 0-3.309-2.691-6-6-6-2.762 0-5-2.238-5-5s2.238-5 5-5c3.309 0 6-2.691 6-6 0-2.762 2.238-5 5-5s5 2.238 5 5c0 3.309 2.691 6 6 6 2.762 0 5 2.238 5 5s-2.238 5-5 5c-3.309 0-6 2.691-6 6 0 2.762-2.238 5-5 5z" fill="#01eca5"/><path d="m436.29 224.868c-2.762 0-5-2.238-5-5 0-3.309-2.691-6-6-6-2.762 0-5-2.238-5-5s2.238-5 5-5c3.309 0 6-2.691 6-6 0-2.762 2.238-5 5-5s5 2.238 5 5c0 3.309 2.691 6 6 6 2.762 0 5 2.238 5 5s-2.238 5-5 5c-3.309 0-6 2.691-6 6 0 2.762-2.238 5-5 5z" fill="#ff7eb8"/><path d="m415.29 279.148c-1.279 0-2.56-.488-3.535-1.465-1.953-1.952-1.953-5.118 0-7.07l10-10c1.951-1.953 5.119-1.953 7.07 0 1.953 1.952 1.953 5.118 0 7.07l-10 10c-.975.977-2.256 1.465-3.535 1.465z" fill="#6583fe"/></svg>