<svg id="Icons" height="512" viewBox="0 0 74 74" width="512" xmlns="http://www.w3.org/2000/svg"><path d="m63.7 35.647h-.009a4.861 4.861 0 0 1 -3.461-1.441l-15.585-15.636a4.9 4.9 0 0 1 .011-6.927l4.552-4.543a1 1 0 0 1 .706-.292 1 1 0 0 1 .706.294l21.086 21.16a1 1 0 0 1 0 1.414l-4.551 4.538a4.867 4.867 0 0 1 -3.455 1.433zm-17.639-18.489 15.583 15.637a2.878 2.878 0 0 0 2.048.853 2.877 2.877 0 0 0 2.047-.846l3.843-3.832-19.67-19.742-3.845 3.832a2.9 2.9 0 0 0 -.007 4.1z"/><path d="m10.3 36.44h-.009a4.866 4.866 0 0 1 -3.46-1.44l-4.539-4.552a1 1 0 0 1 0-1.415l21.161-21.086a1 1 0 0 1 1.414 0l4.538 4.553a4.9 4.9 0 0 1 -.011 6.928l-15.637 15.583a4.867 4.867 0 0 1 -3.457 1.429zm-5.886-6.7 3.833 3.844a2.9 2.9 0 0 0 4.1.007l15.635-15.579a2.9 2.9 0 0 0 .007-4.1l-3.832-3.843z"/><path d="m56.964 51.262a4.626 4.626 0 0 1 -3.284-1.362l-7.205-7.2a1 1 0 0 1 1.414-1.414l7.205 7.206a2.644 2.644 0 1 0 3.739-3.74l-16.67-16.672v6.7a4.673 4.673 0 0 1 -9.347 0v-10.395a7.112 7.112 0 0 1 5.484-6.951 16.09 16.09 0 0 1 8.6.714 1 1 0 1 1 -.635 1.9 14.143 14.143 0 0 0 -7.532-.657 5.1 5.1 0 0 0 -3.911 5v10.386a2.673 2.673 0 0 0 5.347 0v-9.111a1 1 0 0 1 1.707-.707l18.371 18.377a4.642 4.642 0 0 1 -3.283 7.926z"/><path d="m51.435 56.683a4.88 4.88 0 0 1 -3.472-1.438l-5.308-5.308a1 1 0 0 1 1.414-1.414l5.308 5.308a2.981 2.981 0 0 0 4.115 0 2.914 2.914 0 0 0 0-4.115l-6.673-6.673a1 1 0 0 1 1.414-1.414l6.673 6.671a4.909 4.909 0 0 1 -3.472 8.381z"/><path d="m46.231 61.979a4.663 4.663 0 0 1 -3.309-1.368l-2.41-2.41a1 1 0 0 1 1.414-1.414l2.41 2.41a2.679 2.679 0 0 0 3.789-3.789l-5.472-5.471a1 1 0 0 1 1.414-1.414l5.472 5.471a4.677 4.677 0 0 1 -3.309 7.985z"/><path d="m41.028 67.185a4.665 4.665 0 0 1 -3.309-1.368l-1.965-1.967a1 1 0 0 1 1.414-1.414l1.966 1.964a2.679 2.679 0 1 0 3.789-3.789l-2.41-2.41a1 1 0 0 1 1.414-1.414l2.41 2.41a4.677 4.677 0 0 1 -3.309 7.985z"/><path d="m32.232 66.933a4.45 4.45 0 0 1 -3.157-1.306l-.293-.294a4.465 4.465 0 0 1 0-6.315l2.4-2.4a4.473 4.473 0 0 1 6.316 0l.293.294a4.47 4.47 0 0 1 0 6.314l-2.4 2.4a4.451 4.451 0 0 1 -3.159 1.307zm.361-8.9-2.4 2.4a2.464 2.464 0 0 0 0 3.487l.293.294a2.468 2.468 0 0 0 3.486 0l2.4-2.4a2.47 2.47 0 0 0 0-3.487l-.293-.294a2.47 2.47 0 0 0 -3.487 0z"/><path d="m27.061 61.5a4.983 4.983 0 0 1 -3.525-8.5l1.63-1.629a4.984 4.984 0 1 1 7.048 7.048l-1.63 1.629a4.95 4.95 0 0 1 -3.523 1.452zm1.629-9.6a2.975 2.975 0 0 0 -2.109.873l-1.63 1.629a2.984 2.984 0 0 0 4.22 4.22l1.629-1.622a2.982 2.982 0 0 0 -2.11-5.092z"/><path d="m21.422 56.084a4.464 4.464 0 0 1 -3.158-7.622l2.362-2.362a4.466 4.466 0 0 1 6.315 6.315l-2.361 2.363a4.454 4.454 0 0 1 -3.158 1.306zm2.362-9.291a2.459 2.459 0 0 0 -1.744.721l-2.362 2.361a2.466 2.466 0 0 0 3.488 3.488l2.361-2.363a2.465 2.465 0 0 0 -1.743-4.208z"/><path d="m16.519 51.185a4.464 4.464 0 0 1 -3.157-7.622l2.361-2.363a4.466 4.466 0 1 1 6.315 6.316l-2.361 2.361a4.451 4.451 0 0 1 -3.158 1.308zm.618-8.569-2.361 2.362a2.466 2.466 0 0 0 3.487 3.487l2.361-2.365a2.466 2.466 0 1 0 -3.487-3.488z"/><path d="m57.2 42.7a1 1 0 0 1 -.5-1.869c2.255-1.285 2.163-6.709 1.953-8.509a1 1 0 0 1 .877-1.109.987.987 0 0 1 1.109.877c.1.844.853 8.312-2.949 10.478a.992.992 0 0 1 -.49.132z"/><path d="m15.57 43.768a1 1 0 0 1 -.907-.579 16.094 16.094 0 0 1 -.4-11.321 1 1 0 0 1 1.883.675 14.306 14.306 0 0 0 .337 9.808 1 1 0 0 1 -.908 1.418z"/><path d="m34.676 22.23a.988.988 0 0 1 -.509-.14 8.3 8.3 0 0 0 -7.148-.443 1 1 0 1 1 -.641-1.895 10.2 10.2 0 0 1 8.809.618 1 1 0 0 1 -.511 1.86z"/></svg>