<svg id="Layer_1" enable-background="new 0 0 512 512" height="512" viewBox="0 0 512 512" width="512" xmlns="http://www.w3.org/2000/svg"><path d="m285.089 242.581c-5.5 0-10-4.5-10-10v-132.491h-257.589c-5.5 0-10 4.5-10 10v379.047c0 5.5 4.5 10 10 10h378.515c5.5 0 10-4.5 10-10v-246.556z" fill="#8c9ba7"/><path d="m285.089 242.581c-5.5 0-10-4.5-10-10v-101.152h-231.076c-2.868 0-5.216 2.351-5.216 5.223v318.189l74.735-105.334c1.662-2.342 4.38-2.342 6.042 0l54.881 77.35 101.061-142.829c1.658-2.344 4.377-2.349 6.041-.008l93.161 130.938v-172.377z" fill="#c7eefd"/><path d="m70 136.651c0-2.872 2.348-5.223 5.216-5.223h-31.203c-2.868 0-5.216 2.351-5.216 5.223v318.189l31.203-43.978z" fill="#98e5fb"/><path d="m281.557 284.02c-1.664-2.341-4.383-2.336-6.041.008l-101.061 142.828 29.049 40.941h165.997c2.869 0 5.217-2.351 5.217-5.224v-47.617z" fill="#00c184"/><path d="m195.24 456.151 104.104-147.131-17.788-25.001c-1.664-2.341-4.383-2.336-6.041.008l-101.06 142.829z" fill="#07b17b"/><path d="m113.532 349.507-74.735 105.334v7.733c0 2.873 2.348 5.224 5.216 5.224h159.491l-83.93-118.291c-1.662-2.342-4.38-2.342-6.042 0z" fill="#00c184"/><path d="m80.293 462.574v-7.733l57.009-80.349-17.728-24.985c-1.662-2.342-4.38-2.342-6.042 0l-74.735 105.334v7.733c0 2.873 2.348 5.224 5.216 5.224h41.496c-2.868 0-5.216-2.351-5.216-5.224z" fill="#07b17b"/><ellipse cx="128.515" cy="235.891" fill="#fda613" rx="38.6" ry="38.651"/><path d="m121 235.891c0-15.808 9.482-29.39 23.058-35.379-4.757-2.098-10.012-3.271-15.543-3.271-21.317 0-38.6 17.305-38.6 38.65 0 21.347 17.282 38.651 38.6 38.651 5.531 0 10.786-1.174 15.543-3.271-13.576-5.99-23.058-19.573-23.058-35.38z" fill="#fa8701"/><path d="m504.5 232.581c0 5.5-4.5 10-10 10h-209.411c-5.5 0-10-4.5-10-10v-209.718c0-5.5 4.5-10 10-10h209.411c5.5 0 10 4.5 10 10z" fill="#c4d2dc"/><path d="m306.589 232.581v-34.052c-4.038-.119-7.275-3.422-7.275-7.488s3.237-7.369 7.275-7.488v-47.852c-4.038-.119-7.275-3.422-7.275-7.488s3.237-7.369 7.275-7.488v-47.852c-4.038-.119-7.275-3.422-7.275-7.488s3.237-7.369 7.275-7.488v-35.034c0-5.5 4.5-10 10-10h-31.5c-5.5 0-10 4.5-10 10v209.718c0 5.5 4.5 10 10 10h31.5c-5.5 0-10-4.5-10-10z" fill="#b5c3ce"/><ellipse cx="398.127" cy="64.894" fill="#fd646f" rx="20.098" ry="20.125"/><ellipse cx="355.971" cy="127.723" fill="#fda613" rx="20.098" ry="20.125"/><ellipse cx="419.696" cy="190.551" fill="#fff" rx="20.098" ry="20.125"/><path d="m128.515 189.74c-25.419 0-46.1 20.703-46.1 46.15 0 25.448 20.681 46.151 46.1 46.151s46.1-20.703 46.1-46.151c-.001-25.447-20.681-46.15-46.1-46.15zm0 77.302c-17.148 0-31.1-13.975-31.1-31.151 0-17.177 13.951-31.15 31.1-31.15 17.148 0 31.1 13.974 31.1 31.15-.001 17.176-13.952 31.151-31.1 31.151z"/><path d="m494.5 5.363h-209.411c-9.649 0-17.5 7.851-17.5 17.5v69.727h-250.089c-9.649 0-17.5 7.851-17.5 17.5v379.047c0 9.649 7.851 17.5 17.5 17.5h378.515c9.65 0 17.5-7.851 17.5-17.5v-239.056h22.485c4.143 0 7.5-3.357 7.5-7.5s-3.357-7.5-7.5-7.5h-150.911c-1.355 0-2.5-1.145-2.5-2.5v-209.718c0-1.356 1.145-2.5 2.5-2.5h209.411c1.355 0 2.5 1.144 2.5 2.5v209.718c0 1.355-1.145 2.5-2.5 2.5h-23.5c-4.143 0-7.5 3.357-7.5 7.5s3.357 7.5 7.5 7.5h23.5c9.649 0 17.5-7.851 17.5-17.5v-209.718c0-9.649-7.851-17.5-17.5-17.5zm-209.411 244.718h82.129v141.397l-79.548-111.804c-2.218-3.119-5.545-4.907-9.131-4.907-.004 0-.009 0-.013 0-3.591.004-6.92 1.801-9.133 4.929l-94.946 134.188-48.757-68.718c-2.218-3.124-5.548-4.916-9.137-4.916-3.59 0-6.92 1.792-9.139 4.917l-61.118 86.142v-292.38h39.704c4.143 0 7.5-3.357 7.5-7.5s-3.357-7.5-7.5-7.5h-41.987c-7.012 0-12.716 5.707-12.716 12.723v325.923c0 7.016 5.704 12.724 12.716 12.724h253.987c4.143 0 7.5-3.358 7.5-7.5 0-4.143-3.357-7.5-7.5-7.5h-90.621l-23.731-33.447 94.9-134.123 88.67 124.625v42.945h-34.218c-4.143 0-7.5 3.357-7.5 7.5 0 4.142 3.357 7.5 7.5 7.5h36.501c7.012 0 12.717-5.708 12.717-12.724v-212.494h16.297v239.056c0 1.355-1.145 2.5-2.5 2.5h-378.515c-1.355 0-2.5-1.145-2.5-2.5v-379.047c0-1.355 1.145-2.5 2.5-2.5h250.089v16.339h-145.589c-4.143 0-7.5 3.357-7.5 7.5s3.357 7.5 7.5 7.5h145.589v93.652c0 9.649 7.851 17.5 17.5 17.5zm-96.103 210.217h-142.689v-3.066l70.257-99.021z"/><path d="m306.814 72.885h64.897c3.434 11.348 13.975 19.634 26.417 19.634s22.983-8.286 26.416-19.634h48.231c4.143 0 7.5-3.358 7.5-7.5 0-4.143-3.357-7.5-7.5-7.5h-47.952c-3.107-11.849-13.896-20.615-26.695-20.615s-23.589 8.767-26.696 20.615h-64.618c-4.143 0-7.5 3.357-7.5 7.5 0 4.142 3.357 7.5 7.5 7.5zm91.314-20.615c6.946 0 12.598 5.663 12.598 12.624 0 6.962-5.651 12.625-12.598 12.625s-12.599-5.663-12.599-12.625c0-6.961 5.652-12.624 12.599-12.624z"/><path d="m306.814 135.713h22.741c3.432 11.348 13.974 19.635 26.416 19.635s22.984-8.287 26.417-19.635h90.388c4.143 0 7.5-3.357 7.5-7.5s-3.357-7.5-7.5-7.5h-90.109c-3.107-11.849-13.896-20.615-26.695-20.615s-23.588 8.767-26.695 20.615h-22.462c-4.143 0-7.5 3.357-7.5 7.5-.001 4.142 3.356 7.5 7.499 7.5zm49.157-20.615c6.947 0 12.599 5.663 12.599 12.625s-5.651 12.625-12.599 12.625c-6.946 0-12.598-5.663-12.598-12.625s5.651-12.625 12.598-12.625z"/><path d="m306.814 198.541h86.466c3.432 11.348 13.974 19.635 26.416 19.635s22.984-8.287 26.417-19.635h26.663c4.143 0 7.5-3.357 7.5-7.5s-3.357-7.5-7.5-7.5h-26.385c-3.107-11.848-13.896-20.614-26.695-20.614s-23.587 8.767-26.695 20.614h-86.186c-4.143 0-7.5 3.357-7.5 7.5s3.356 7.5 7.499 7.5zm112.881-20.614c6.947 0 12.599 5.663 12.599 12.624 0 6.962-5.651 12.625-12.599 12.625-6.946 0-12.598-5.663-12.598-12.625.001-6.961 5.652-12.624 12.598-12.624z"/></svg>