<?xml version="1.0" encoding="iso-8859-1"?>
<!-- Generator: Adobe Illustrator 19.0.0, SVG Export Plug-In . SVG Version: 6.00 Build 0)  -->
<svg version="1.1" id="Capa_1" xmlns="http://www.w3.org/2000/svg" xmlns:xlink="http://www.w3.org/1999/xlink" x="0px" y="0px"
	 viewBox="0 0 512 512" style="enable-background:new 0 0 512 512;" xml:space="preserve">
<g>
	<polygon style="fill:#0396D9;" points="193.208,376.967 193.208,440.541 216.355,462.905 239.503,440.541 239.503,376.967 	"/>
	<polygon style="fill:#0396D9;" points="318.793,376.967 318.793,440.541 295.646,462.905 272.498,440.541 272.498,376.967 	"/>
</g>
<g>
	<path style="fill:#47453C;" d="M239.503,440.541V512h-71.709c0-15.009,11.019-27.454,25.414-29.662v-41.797H239.503z"/>
	<path style="fill:#47453C;" d="M272.498,440.541V512h71.709c0-15.009-11.019-27.454-25.414-29.662v-41.797H272.498z"/>
</g>
<g>
	<path style="fill:#0384BF;" d="M272.498,424.764c17.995-0.243,33.48-0.843,46.295-1.562v-46.236h-46.295V424.764z"/>
	<path style="fill:#0384BF;" d="M193.208,423.28c12.876,0.703,28.354,1.281,46.295,1.502v-47.815h-46.295V423.28z"/>
</g>
<path style="fill:#EB5E55;" d="M351.372,360.066L256,346.677l-96.802,13.39l-8.954,38.877c0,0,37.353,5.334,105.041,5.334
	s105.041-5.334,105.041-5.334L351.372,360.066z"/>
<path style="fill:#D1544C;" d="M150.244,398.944c0,0,9.35,1.335,27.17,2.669c3.384-31.077,7.542-41.546,7.542-41.546l-5.875-2.751
	l-19.883,2.751L150.244,398.944z"/>
<g>
	<path style="fill:#FEE2C7;" d="M375.947,314.132l-23.148,21.341l-8.593,11.203l8.593,2.514c0,12.779,10.364,23.143,23.153,23.143
		c12.779,0,23.143-10.364,23.143-23.143v-13.717L375.947,314.132z"/>
	<path style="fill:#FEE2C7;" d="M159.202,335.473l-23.148-21.341l-23.148,21.341v13.717c0,12.779,10.364,23.143,23.143,23.143
		c12.79,0,23.153-10.364,23.153-23.143l9.5-5.958L159.202,335.473z"/>
</g>
<path style="fill:#E6CCB4;" d="M128.359,349.19v-13.717l15.422-14.218l-7.726-7.124l-23.148,21.341v13.717
	c0,12.779,10.364,23.143,23.143,23.143c2.711,0,5.312-0.47,7.728-1.326C134.797,367.826,128.359,359.26,128.359,349.19z"/>
<path style="fill:#47453C;" d="M336.911,131.77l-5.262-7.059l-75.647-21.593l-75.647,21.593l-5.262,7.059
	c-26.199,35.141-31.99,73.694-15.892,105.775L256,264.18l96.799-26.633h0.002C368.9,205.464,363.108,166.911,336.911,131.77z"/>
<polygon style="fill:#EB5E55;" points="352.801,237.55 352.801,237.546 159.199,237.546 136.054,292.792 159.199,333.286 
	256,346.677 352.801,333.286 375.947,292.941 "/>
<polygon style="fill:#0396D9;" points="136.054,244.35 112.906,266.628 112.906,292.792 136.054,314.132 159.202,292.792 
	159.202,266.628 "/>
<polygon style="fill:#0384BF;" points="128.359,292.792 128.359,266.628 143.781,251.787 136.054,244.35 112.906,266.628 
	112.906,292.792 136.054,314.132 143.781,307.009 "/>
<polygon style="fill:#0396D9;" points="375.947,244.35 399.095,266.628 399.095,292.792 375.947,314.132 352.799,292.792 
	352.799,266.628 "/>
<path style="fill:#47453C;" d="M175.682,113.061C154.372,71.4,157.505,0,256,0s101.628,71.4,80.318,113.061L256,130.197
	L175.682,113.061z"/>
<path style="fill:#3D3C33;" d="M209.678,113.061C189.67,73.945,191.214,8.618,272.998,0.781C267.676,0.271,262.019,0,256,0
	c-98.496,0-101.628,71.4-80.318,113.061L256,130.197l16.998-3.626L209.678,113.061z"/>
<path style="fill:#FEE2C7;" d="M195.966,147.333C150.685,208.071,189.051,264.18,256,264.18s105.315-56.11,60.035-116.846
	L256,130.197L195.966,147.333z"/>
<path style="fill:#E6CCB4;" d="M211.418,147.333l52.308-14.93L256,130.197l-60.035,17.136
	C150.685,208.071,189.051,264.18,256,264.18c2.622,0,5.195-0.096,7.726-0.265C201.632,259.767,167.911,205.692,211.418,147.333z"/>
<ellipse style="fill:#EFD25F;" cx="256" cy="61.574" rx="16.243" ry="24.587"/>
<g>
	<path style="fill:#47453C;" d="M240.385,201.853c-18.203,5.004-18.225,20.374-35.409,22.532c-2.522,0.316-3.186,3.638-0.962,4.867
		c11.282,6.239,33.944,13.23,52.702-15.73L240.385,201.853z"/>
	<circle style="fill:#47453C;" cx="219.481" cy="174.461" r="10.527"/>
	<path style="fill:#47453C;" d="M271.616,201.853c18.203,5.004,18.225,20.374,35.409,22.532c2.522,0.316,3.185,3.638,0.962,4.867
		c-11.281,6.239-33.944,13.23-52.702-15.73L271.616,201.853z"/>
	<circle style="fill:#47453C;" cx="292.52" cy="174.461" r="10.527"/>
</g>
<rect x="112.908" y="292.788" style="fill:#FF665C;" width="46.295" height="42.68"/>
<rect x="112.908" y="292.788" style="fill:#EB5E55;" width="15.453" height="42.68"/>
<path style="fill:#EFD25F;" d="M159.202,241.476v25.153h-46.295v-25.153c0-12.79,10.364-23.153,23.143-23.153
	C148.839,218.323,159.202,228.686,159.202,241.476z"/>
<path style="fill:#D4BA54;" d="M143.778,219.649c-2.418-0.856-5.018-1.326-7.728-1.326c-12.779,0-23.143,10.363-23.143,23.153
	v25.153h15.453v-25.153C128.359,231.397,134.797,222.83,143.778,219.649z"/>
<rect x="159.194" y="333.284" style="fill:#EFD25F;" width="193.602" height="26.781"/>
<rect x="352.796" y="292.788" style="fill:#FF665C;" width="46.295" height="42.68"/>
<g>
	<path style="fill:#EFD25F;" d="M352.799,241.476v25.153h46.295v-25.153c0-12.79-10.364-23.153-23.143-23.153
		C363.162,218.323,352.799,228.686,352.799,241.476z"/>
	<circle style="fill:#EFD25F;" cx="237.251" cy="285.01" r="7.931"/>
	<circle style="fill:#EFD25F;" cx="237.251" cy="309.312" r="7.931"/>
	<circle style="fill:#EFD25F;" cx="274.75" cy="285.01" r="7.931"/>
	<circle style="fill:#EFD25F;" cx="274.75" cy="309.312" r="7.931"/>
</g>
<circle style="fill:#EB5E55;" cx="256" cy="197.434" r="16.243"/>
<path style="fill:#EFD25F;" d="M336.319,113.061H175.682c-9.464,0-17.136,7.672-17.136,17.136s7.672,17.136,17.136,17.136h160.636
	c9.464,0,17.136-7.672,17.136-17.136S345.783,113.061,336.319,113.061z"/>
<path style="fill:#D4BA54;" d="M199.754,130.197c0-9.464,7.672-17.136,17.136-17.136h-41.207c-9.464,0-17.136,7.673-17.136,17.136
	c0,9.464,7.672,17.136,17.136,17.136h41.207C207.425,147.333,199.754,139.662,199.754,130.197z"/>
<rect x="159.205" y="237.549" style="fill:#D1544C;" width="25.755" height="95.745"/>
<rect x="159.194" y="333.284" style="fill:#D4BA54;" width="25.755" height="26.781"/>
<g>
</g>
<g>
</g>
<g>
</g>
<g>
</g>
<g>
</g>
<g>
</g>
<g>
</g>
<g>
</g>
<g>
</g>
<g>
</g>
<g>
</g>
<g>
</g>
<g>
</g>
<g>
</g>
<g>
</g>
</svg>
