<svg id="Capa_1" enable-background="new 0 0 512 512" height="512" viewBox="0 0 512 512" width="512" xmlns="http://www.w3.org/2000/svg"><g><g id="Paper_Plane_1_"><g><path d="m490.449 147.218-175.433 74.884-186.676-93.762 93.762 186.676-74.884 175.433-147.218-490.449z" fill="#ffe566"/></g><g><path d="m421.736 345.296h30v182.879h-30z" fill="#6cf" transform="matrix(.707 -.707 .707 .707 -180.902 436.736)"/></g><g><path d="m431.538 244.258h30v150h-30z" fill="#59abff" transform="matrix(.707 -.707 .707 .707 -94.962 409.259)"/></g><g><path d="m304.258 371.538h30v150h-30z" fill="#6cf" transform="matrix(.707 -.707 .707 .707 -222.241 356.538)"/></g></g><path d="m434.539 339.993h15v182.879h-15z" fill="#59abff" transform="matrix(.707 -.707 .707 .707 -175.599 438.933)"/><path d="m315.016 222.102 175.433-74.884-490.449-147.218 128.34 128.34z" fill="#ffbe40"/><path d="m315.016 222.102 23.334 116.248-116.248-23.334-199.828-292.742z" fill="#ffbe40"/><path d="m315.016 222.102-292.742-199.828 316.076 316.076z" fill="#ff9f40"/></g></svg>