<svg id="Layer_1" enable-background="new 0 0 512.001 512.001" height="512" viewBox="0 0 512.001 512.001" width="512" xmlns="http://www.w3.org/2000/svg"><g id="XMLID_324_"><path id="XMLID_1279_" d="m355.201 118.55c13.292-8.988 28.137-14.012 43.799-14.012 56.885 0 103 66.275 103 148.03s-46.115 148.03-103 148.03c-15.662 0-30.508-5.024-43.799-14.012h-198.401c-13.292 8.988-28.137 14.012-43.8 14.012-56.885 0-103-66.275-103-148.03s46.115-148.03 103-148.03c15.662 0 30.508 5.024 43.8 14.012z" fill="#ffcd69"/><path id="XMLID_1278_" d="m280.032 384.145c11.998 8.457 25.352 13.173 39.424 13.173 52.166 0 94.456-64.807 94.456-144.75s-42.289-144.75-94.456-144.75c-14.073 0-27.427 4.716-39.425 13.174h-48.06c-11.999-8.457-25.353-13.174-39.425-13.174-52.166 0-94.456 64.807-94.456 144.75s42.289 144.75 94.456 144.75c14.072 0 27.426-4.716 39.424-13.173z" fill="#ffda8f"/><path id="XMLID_1442_" d="m256.001 388.318c-39.212 0-71-31.788-71-71v-129.5c0-39.212 31.788-71 71-71 39.212 0 71 31.788 71 71v129.5c0 39.212-31.788 71-71 71z" fill="#ffcd69"/><g id="XMLID_1265_"><path id="XMLID_1271_" d="m77.001 368.001h-45c-12.15 0-22-9.85-22-22 0-12.15 9.85-22 22-22h45c48.026 0 89.026 30.658 104.456 73.432l191.086-.004c16.319-17.479 39.378-27.834 64.411-27.834h43.047c12.15 0 22 9.85 22 22 0 12.15-9.85 22-22 22h-43.047l-44.203 27.838h-248.75z" fill="#80b6ff"/></g><circle id="XMLID_1252_" cx="77.001" cy="435.001" fill="#dfedff" r="67"/><circle id="XMLID_1066_" cx="436.954" cy="457.798" fill="#dfedff" r="44.203"/><path id="XMLID_1185_" d="m225.001 187.885h62v62h-62z" fill="#c193dc" transform="matrix(-1 0 0 -1 512.002 437.769)"/><g id="XMLID_449_"><path id="XMLID_482_" d="m482.259 359.684c19.065-28.935 29.742-66.839 29.742-107.116 0-41.563-11.35-80.765-31.959-110.384-21.379-30.725-50.159-47.646-81.041-47.646-15.352 0-30.133 4.153-44.028 12.34-11.141-5.891-23.114-9.06-35.517-9.06-14.292 0-28.046 4.111-40.958 12.203-5.153-1.493-10.514-2.483-16.031-2.921-12.832-14.452-17.559-33.614-14.17-51.536 6.264 7.754 15.842 12.725 26.563 12.725 36.12 0 69.038-21.267 83.863-54.179 2.268-5.036.024-10.957-5.012-13.225-5.035-2.269-10.956-.024-13.225 5.011-6.691 14.857-18.101 26.671-31.981 34.016.321-1.876.497-3.801.497-5.767 0-18.827-15.316-34.144-34.143-34.144-9.15 0-17.464 3.625-23.6 9.505-.153.135-.309.265-.456.412-26.741 26.741-30.708 67.746-11.934 98.739-1.814.392-3.601.852-5.368 1.363-12.912-8.092-26.666-12.203-40.958-12.203-12.364 0-24.35 3.096-35.57 9.028-13.879-8.166-28.643-12.308-43.975-12.308-30.881 0-59.662 16.921-81.041 47.646-20.609 29.62-31.959 68.821-31.959 110.384 0 24.016 3.882 47.696 11.275 69.099-6.887 5.874-11.275 14.595-11.275 24.335 0 15.578 11.191 28.584 25.955 31.42-15.905 14.116-25.955 34.692-25.955 57.58 0 42.458 34.542 77 77 77 36.818 0 67.666-25.981 75.217-60.568h230.919c-.246 2.089-.386 4.21-.386 6.365 0 29.888 24.315 54.203 54.203 54.203s54.203-24.315 54.203-54.203c0-12.959-4.577-24.867-12.192-34.203h1.036c17.645 0 32-14.355 32-32 .003-16.885-13.145-30.748-29.739-31.911zm-162.803-241.867c17.407 0 34.204 8.6 48.574 24.87 14.65 16.586 25.841 40.469 31.509 67.251.996 4.705 5.148 7.932 9.773 7.931.686 0 1.383-.071 2.08-.219 5.403-1.144 8.856-6.451 7.713-11.854-7.829-36.988-24.31-67.019-45.592-85.936 8.245-3.53 16.773-5.323 25.487-5.323 24.144 0 47.094 13.875 64.624 39.068 18.299 26.299 28.376 61.444 28.376 98.961 0 41.871-12.534 80.574-34.508 107.028h-20.539c-19.248 0-37.975 5.668-53.8 15.975 16.573-18.78 29.316-44.977 35.925-76.105 1.146-5.402-2.303-10.712-7.705-11.859-5.41-1.145-10.713 2.303-11.859 7.706-5.68 26.752-16.871 50.607-31.514 67.169-14.364 16.248-31.148 24.949-48.542 24.949h-22.976c24.196-14.025 40.519-40.19 40.519-70.113v-129.5c0-27.768-14.051-52.31-35.41-66.91 5.837-2.047 11.806-3.089 17.865-3.089zm-63.455 9c33.636 0 61 27.364 61 61v129.5c0 33.636-27.364 61-61 61s-61-27.364-61-61v-129.5c0-33.635 27.364-61 61-61zm33.003-92.672c0 7.798-6.345 14.143-14.143 14.143-7.799 0-14.144-6.345-14.144-14.143 0-7.799 6.345-14.144 14.144-14.144 7.798 0 14.143 6.345 14.143 14.144zm-78.594 86.762c-21.359 14.6-35.41 39.142-35.41 66.91v129.5c0 29.924 16.323 56.091 40.521 70.115h-27.264c-13.047-30.428-37.892-53.76-67.918-65.347-8.023-20.978-12.251-44.911-12.251-69.519 0-36.746 9.248-71.155 26.04-96.889 15.932-24.415 36.678-37.861 58.416-37.861 6.06.001 12.029 1.043 17.866 3.091zm-162.033 32.699c17.53-25.193 40.48-39.068 64.624-39.068 8.706 0 17.225 1.789 25.461 5.312-7.637 6.824-14.721 15.151-21.082 24.899-18.888 28.945-29.29 67.236-29.29 107.818 0 21.913 3.086 43.403 8.988 63.143-6.566-1.113-13.273-1.709-20.077-1.709h-47.2c-6.423-19.014-9.8-40.042-9.8-61.434 0-37.517 10.077-72.662 28.376-98.961zm81.892 300.603-33.269-19.208 33.268-19.208c.112-.065.214-.14.323-.208 2.204 6.063 3.409 12.601 3.409 19.416s-1.206 13.353-3.409 19.416c-.108-.068-.21-.143-.322-.208zm-106.859.208c-2.204-6.063-3.409-12.601-3.409-19.416s1.206-13.353 3.409-19.416c.109.068.21.144.323.208l33.268 19.208-33.268 19.208c-.112.065-.214.14-.323.208zm43.61-75.522c-.005.124-.019.246-.019.372v38.415l-33.268-19.208c-.102-.059-.207-.104-.31-.158 8.423-9.991 20.209-17.046 33.597-19.421zm53.249 19.579-33.268 19.208v-38.415c0-.125-.014-.247-.019-.372 13.388 2.375 25.173 9.431 33.596 19.421-.102.054-.208.099-.309.158zm-86.85 73.21c.104-.055.211-.095.313-.154l33.268-19.208v38.415c0 .125.014.247.019.372-13.389-2.377-25.176-9.433-33.6-19.425zm53.563 19.424c.005-.124.019-.246.019-.372v-38.415l33.268 19.208c.102.059.21.099.313.154-8.424 9.993-20.21 17.049-33.6 19.425zm359.972-66.018c10.831 3.318 19.39 11.877 22.708 22.708h-22.708zm-20 22.708h-22.708c3.318-10.831 11.877-19.39 22.708-22.708zm-22.708 20h22.708v22.708c-10.831-3.318-19.39-11.877-22.708-22.708zm42.708 22.709v-22.708h22.708c-3.318 10.83-11.877 19.389-22.708 22.708zm33.047-86.912h-43.047c-20.322 0-38.057 11.248-47.335 27.838h-235.709c-1.871-40.807-35.648-73.432-76.909-73.432h-45c-6.617 0-12-5.383-12-12s5.383-12 12-12h45c42.434 0 80.631 26.855 95.049 66.825 1.43 3.965 5.192 6.607 9.407 6.607l191.086-.004c2.771 0 5.418-1.15 7.31-3.176 14.631-15.67 35.443-24.658 57.102-24.658h43.047c6.617 0 12 5.383 12 12s-5.384 12-12.001 12z"/><path id="XMLID_1213_" d="m413.97 262.631c2.63 0 5.21-1.07 7.07-2.93 1.87-1.86 2.93-4.44 2.93-7.07s-1.06-5.21-2.93-7.07c-1.86-1.87-4.44-2.93-7.07-2.93s-5.21 1.06-7.07 2.93c-1.859 1.86-2.93 4.44-2.93 7.07s1.07 5.21 2.93 7.07c1.86 1.861 4.441 2.93 7.07 2.93z"/><path id="XMLID_1266_" d="m225.001 259.884h62c5.522 0 10-4.477 10-10v-62c0-5.523-4.478-10-10-10h-62c-5.523 0-10 4.477-10 10v62c0 5.523 4.477 10 10 10zm10-62h42v42h-42z"/></g></g></svg>