<?xml version="1.0" encoding="iso-8859-1"?>
<!-- Generator: Adobe Illustrator 19.0.0, SVG Export Plug-In . SVG Version: 6.00 Build 0)  -->
<svg version="1.1" id="Layer_1" xmlns="http://www.w3.org/2000/svg" xmlns:xlink="http://www.w3.org/1999/xlink" x="0px" y="0px"
	 viewBox="0 0 512 512" style="enable-background:new 0 0 512 512;" xml:space="preserve">
<path style="fill:#EFBA50;" d="M256,236.962c-0.994,0-1.986-0.215-2.907-0.647c-10.222-4.775-16.826-15.136-16.826-26.4
	c0-11.263,6.603-21.625,16.826-26.401c0.921-0.43,1.913-0.647,2.907-0.647s1.987,0.216,2.907,0.647
	c10.222,4.775,16.826,15.137,16.826,26.401c0,11.263-6.603,21.625-16.826,26.4C257.987,236.748,256.994,236.962,256,236.962z"/>
<path style="opacity:0.1;enable-background:new    ;" d="M246.836,209.916c0-10.36,5.595-19.946,14.448-25.135
	c-0.771-0.452-1.558-0.883-2.377-1.265c-0.92-0.43-1.913-0.647-2.907-0.647s-1.986,0.216-2.907,0.647
	c-10.222,4.775-16.826,15.137-16.826,26.401c0,11.263,6.603,21.625,16.826,26.4c0.921,0.432,1.913,0.647,2.907,0.647
	s1.987-0.215,2.907-0.647c0.819-0.382,1.606-0.814,2.377-1.265C252.433,229.862,246.836,220.277,246.836,209.916z"/>
<g>
	<path style="fill:#DE9900;" d="M213.761,280.182c-17.036,0-30.895-13.848-30.895-30.87c0-4.328,3.508-7.837,7.837-7.837
		c4.329,0,7.837,3.509,7.837,7.837c0,8.38,6.828,15.197,15.221,15.197c4.329,0,7.837,3.509,7.837,7.837
		S218.09,280.182,213.761,280.182z"/>
	<path style="fill:#DE9900;" d="M292.471,212.683c-15.19,0-28.596,7.756-36.471,19.51c-7.875-11.754-21.284-19.51-36.473-19.51
		c-8.078,0-15.741,2.575-22.16,7.448c-3.447,2.616-4.12,7.533-1.503,10.98c2.616,3.448,7.531,4.121,10.981,1.504
		c3.67-2.785,8.055-4.258,12.683-4.258c15.545,0,28.191,12.63,28.191,28.153c0,0.767,0.115,13.419,0.321,14.119h15.958
		c0.181-0.659,0.284-13.402,0.284-14.119c0-15.524,12.645-28.153,28.19-28.153c11.573,0,20.989,9.401,20.989,20.955
		c0,8.38-6.829,15.197-15.223,15.197c-4.329,0-7.837,3.509-7.837,7.837s3.508,7.837,7.837,7.837
		c17.037,0,30.897-13.848,30.897-30.87C329.133,229.115,312.687,212.683,292.471,212.683z"/>
</g>
<path style="fill:#EFBA50;" d="M256.043,393.045c-14.605-0.044-28.334-5.68-38.662-15.862
	c-20.279-20.014-20.517-50.526-0.593-75.957l34.118-46.233c1.2-1.626,3.12-2.59,5.163-2.59l0,0c2.043,0,3.963,0.964,5.165,2.59
	l34.125,46.258c19.732,25.601,19.489,56.109-0.599,75.932c-10.324,10.181-24.059,15.818-38.674,15.862c-0.006,0-0.019,0-0.021,0
	C256.056,393.045,256.046,393.045,256.043,393.045z"/>
<path style="fill:#DE9900;" d="M39.696,400.697c-0.689-2.513-1.052-5.122-1.052-7.787c0-16.243,13.233-29.457,29.497-29.457
	c8.516,0,16.197,3.626,21.584,9.41c-8.349,6.494-13.796,16.532-14.072,27.834h15.692c0.473-11.013,9.569-19.834,20.714-19.834
	s20.241,8.821,20.714,19.834h15.695c-0.248-10.156-4.671-19.293-11.626-25.754c5.077-2.35,9.833-5.612,14.013-9.789
	c7.706-7.698,11.948-17.934,11.948-28.82c0-10.887-4.243-21.122-11.949-28.818c-13.334-13.319-35.026-13.316-48.358,0
	c-3.063,3.059-3.065,8.021-0.005,11.083s8.02,3.065,11.082,0.006c7.223-7.216,18.977-7.217,26.205,0
	c4.741,4.737,7.352,11.033,7.352,17.73c0,6.698-2.611,12.994-7.352,17.731c-13.006,12.99-34.169,12.992-47.175,0
	c-7.157-7.149-11.627-16.616-12.586-26.66c-0.412-4.308-4.236-7.479-8.546-7.056c-4.309,0.412-7.468,4.238-7.056,8.546
	c0.629,6.574,2.372,12.961,5.083,18.907c-0.452-0.014-0.905-0.025-1.36-0.025c-24.907,0-45.171,20.245-45.171,45.13
	c0,2.635,0.233,5.237,0.676,7.787H39.696z"/>
<path style="fill:#EFBA50;" d="M74.333,305.962c3.818,2.038,8.566,0.596,10.604-3.22c2.022-3.784,4.601-7.256,7.67-10.319
	c22.038-22.015,57.901-22.016,79.941,0c13.713,13.698,21.266,31.909,21.266,51.279c0,19.37-7.553,37.581-21.266,51.278
	c-1.576,1.575-2.334,3.654-2.289,5.719h18.294c13.537-15.912,20.935-35.881,20.935-56.997c0-23.56-9.185-45.71-25.862-62.368
	c-28.147-28.116-73.947-28.115-102.094,0c-4.163,4.158-7.669,8.876-10.418,14.026C69.072,299.175,70.515,303.923,74.333,305.962z"/>
<path style="fill:#DE9900;" d="M358.114,280.033c21.114-8.57,45.169-3.706,61.28,12.388c8.243,8.234,12.782,19.18,12.782,30.822
	c0,11.642-4.54,22.589-12.781,30.822c-13.006,12.99-34.169,12.992-47.175,0c-4.742-4.737-7.353-11.034-7.353-17.731
	s2.611-12.993,7.352-17.73c7.226-7.217,18.983-7.216,26.205,0c3.065,3.059,8.027,3.055,11.082-0.005
	c3.059-3.063,3.057-8.025-0.005-11.083c-13.332-13.317-35.025-13.318-48.358,0c-7.706,7.697-11.949,17.932-11.949,28.818
	c0,10.887,4.242,21.123,11.949,28.82c4.095,4.092,8.744,7.299,13.704,9.637c-7.048,6.47-11.535,15.671-11.783,25.905h15.694
	c0.473-11.013,9.569-19.834,20.714-19.834s20.241,8.821,20.714,19.834h15.692c-0.276-11.302-5.723-21.339-14.072-27.834
	c5.388-5.785,13.068-9.409,21.583-9.409c16.265,0,29.497,13.215,29.497,29.457c0,2.664-0.364,5.274-1.051,7.787h16.049
	c0.443-2.55,0.675-5.151,0.675-7.787c0-24.885-20.265-45.13-45.171-45.13c-0.284,0-0.567,0.01-0.851,0.016
	c3.47-7.611,5.311-15.938,5.311-24.552c0-15.832-6.172-30.717-17.38-41.911c-20.577-20.555-51.294-26.765-78.251-15.823
	c-4.011,1.628-5.942,6.198-4.314,10.209C349.533,279.729,354.1,281.662,358.114,280.033z"/>
<path style="fill:#EFBA50;" d="M341.743,400.697c0.045-2.065-0.715-4.143-2.29-5.719c-27.605-27.575-28.548-71.641-2.145-100.323
	c2.932-3.184,2.726-8.142-0.458-11.074c-3.185-2.931-8.142-2.725-11.074,0.459c-30.457,33.085-30.984,82.984-2.327,116.657
	L341.743,400.697L341.743,400.697z"/>
<path style="fill:#E28883;" d="M256.112,370.244c-8.536-0.028-16.591-3.327-22.639-9.29c-11.975-11.817-11.463-29.323,1.349-45.675
	c0.135-0.172,0.269-0.347,0.397-0.523l20.907-28.329l20.916,28.352c0.095,0.129,0.193,0.256,0.289,0.383
	c12.56,16.294,13.127,34.273,1.445,45.801C272.743,366.912,264.695,370.209,256.112,370.244z"/>
<path style="opacity:0.1;enable-background:new    ;" d="M256.01,360.954c-11.975-11.817-11.461-29.323,1.349-45.675
	c0.135-0.172,0.269-0.347,0.397-0.523l9.637-13.058l-11.266-15.271l-20.907,28.329c-0.129,0.176-0.262,0.35-0.397,0.523
	c-12.811,16.352-13.324,33.858-1.349,45.675c6.048,5.963,14.103,9.261,22.639,9.29c3.92-0.016,7.726-0.72,11.283-2.039
	C263.171,366.635,259.293,364.191,256.01,360.954z"/>
<g>
	<path style="fill:#FFC753;" d="M174.822,184.961c-2.105,0-3.946-1.392-4.506-3.399c-4.443-15.945-7.285-18.76-23.373-23.163
		c-2.026-0.555-3.434-2.381-3.434-4.463c0-2.084,1.407-3.908,3.434-4.464c16.088-4.403,18.93-7.216,23.373-23.163
		c0.559-2.008,2.4-3.398,4.506-3.398c2.103,0,3.944,1.39,4.505,3.398c4.442,15.947,7.28,18.76,23.374,23.163
		c2.026,0.556,3.425,2.381,3.425,4.464s-1.4,3.909-3.425,4.463c-16.095,4.403-18.933,7.218-23.374,23.163
		C178.766,183.569,176.924,184.961,174.822,184.961z"/>
	<path style="fill:#FFC753;" d="M343.312,201.168c-1.693,0-3.174-1.119-3.623-2.732c-3.573-12.826-5.859-15.09-18.8-18.631
		c-1.63-0.447-2.761-1.915-2.761-3.59s1.131-3.144,2.761-3.59c12.941-3.541,15.227-5.803,18.8-18.629
		c0.448-1.615,1.93-2.732,3.623-2.732c1.689,0,3.172,1.117,3.622,2.732c3.575,12.826,5.859,15.088,18.802,18.629
		c1.628,0.446,2.756,1.915,2.756,3.59c0,1.675-1.128,3.143-2.756,3.59c-12.943,3.54-15.227,5.804-18.802,18.631
		C346.484,200.05,345,201.168,343.312,201.168z"/>
	<path style="fill:#FFC753;" d="M278.638,98.118c-1.693,0-3.174-1.119-3.624-2.732c-3.573-12.826-5.859-15.09-18.8-18.631
		c-1.629-0.447-2.76-1.916-2.76-3.59c0-1.675,1.131-3.144,2.76-3.591c12.942-3.541,15.227-5.803,18.8-18.629
		c0.449-1.615,1.931-2.732,3.624-2.732c1.689,0,3.172,1.117,3.622,2.732c3.575,12.826,5.859,15.088,18.802,18.629
		c1.628,0.446,2.755,1.916,2.755,3.591c0,1.674-1.127,3.143-2.755,3.59c-12.943,3.54-15.227,5.804-18.802,18.631
		C281.81,96.999,280.326,98.118,278.638,98.118z"/>
</g>
<path style="fill:#DE9900;" d="M512,458.399c0,2.964-2.425,5.39-5.39,5.39H5.39c-2.964,0-5.39-2.425-5.39-5.39v-56.638
	c0-2.964,2.425-5.39,5.39-5.39H506.61c2.964,0,5.39,2.425,5.39,5.39L512,458.399L512,458.399z"/>
<path style="opacity:0.1;enable-background:new    ;" d="M32.876,458.399v-56.638c0-2.964,2.425-5.39,5.39-5.39H5.39
	c-2.964,0-5.39,2.425-5.39,5.39v56.638c0,2.964,2.425,5.39,5.39,5.39h32.876C35.301,463.788,32.876,461.363,32.876,458.399z"/>
<g>
	<circle style="fill:#FFFFFF;" cx="187.946" cy="428.951" r="11.169"/>
	<circle style="fill:#FFFFFF;" cx="117.154" cy="428.951" r="11.169"/>
	<circle style="fill:#FFFFFF;" cx="45.96" cy="428.951" r="11.168"/>
	<circle style="fill:#FFFFFF;" cx="466.035" cy="428.951" r="11.168"/>
	<circle style="fill:#FFFFFF;" cx="395.086" cy="428.951" r="11.169"/>
	<circle style="fill:#FFFFFF;" cx="324.054" cy="428.951" r="11.169"/>
</g>
<circle style="fill:#E3DAB3;" cx="256" cy="402.035" r="24.523"/>
<path style="opacity:0.1;enable-background:new    ;" d="M253.843,402.031c0-9.513,5.422-17.755,13.34-21.821
	c-3.354-1.723-7.154-2.701-11.184-2.701c-13.543,0-24.523,10.98-24.523,24.522c0,13.543,10.98,24.522,24.523,24.522
	c4.029,0,7.829-0.978,11.184-2.701C259.265,419.786,253.843,411.543,253.843,402.031z"/>
<g>
</g>
<g>
</g>
<g>
</g>
<g>
</g>
<g>
</g>
<g>
</g>
<g>
</g>
<g>
</g>
<g>
</g>
<g>
</g>
<g>
</g>
<g>
</g>
<g>
</g>
<g>
</g>
<g>
</g>
</svg>
